<svg xmlns="http://www.w3.org/2000/svg" viewBox="0 0 24 24" fill="none" stroke="#B5563A" stroke-width="2" stroke-linecap="round" stroke-linejoin="round">
<rect width="24" height="24" fill="#FDF9F0" stroke="none"/>
<path d="M12 15a3 3 0 1 0 0-6 3 3 0 0 0 0 6Z"/>
<path d="M19.4 13.5c.06-.49.1-.99.1-1.5s-.04-1.01-.1-1.5l1.9-1.48a.76.76 0 0 0 .18-.96l-1.8-3.12a.76.76 0 0 0-.92-.33l-2.24.9a7.4 7.4 0 0 0-1.3-.75l-.34-2.38A.75.75 0 0 0 14.1 2h-3.6a.75.75 0 0 0-.74.65l-.34 2.38c-.47.2-.9.45-1.3.75l-2.24-.9a.76.76 0 0 0-.92.33L2.86 8.33a.76.76 0 0 0 .18.96L4.94 10.77c-.06.49-.1.99-.1 1.5s.04 1.01.1 1.5l-1.9 1.48a.76.76 0 0 0-.18.96l1.8 3.12c.19.33.59.47.92.33l2.24-.9c.4.3.83.55 1.3.75l.34 2.38c.06.36.37.65.74.65h3.6c.37 0 .68-.29.74-.65l.34-2.38c.47-.2.9-.45 1.3-.75l2.24.9c.33.14.73 0 .92-.33l1.8-3.12a.76.76 0 0 0-.18-.96L19.4 13.5Z"/>
</svg>
